Coordinates
version=1
nRows=14
nColumns=33
inDegrees=yes

Units are S.I. units (second, meters, Newtons, ...)
Angles are in degrees.

endheader
time	ground_thorax_rot_x	ground_thorax_rot_y	ground_thorax_rot_z	ground_thorax_tx	ground_thorax_ty	ground_thorax_tz	clav_prot_r	clav_elev_r	scapula_abduction_r	scapula_elevation_r	scapula_upward_rot_r	scapula_winging_r	shoulder_elv_r	plane_of_elev_r	axial_rot_r	elbow_flexion_r	pro_sup_r	wrist_flex_r	wrist_dev_r	clav_prot_l	clav_elev_l	scapula_abduction_l	scapula_elevation_l	scapula_upward_rot_l	scapula_winging_l	shoulder_elv_l	plane_of_elev_l	axial_rot_l	elbow_flexion_l	pro_sup_l	wrist_flex_l	wrist_dev_l
      3.03000000	     39.10711262	      7.69791092	      9.91528936	   -247.38788678	    849.72967921	      6.53278134	     12.08008188	     39.27329033	     37.23440844	     45.00000000	    -32.14644951	   2069.58054303	     67.46481207	     33.20541634	     51.82574873	   2181.59947494	    111.67541258	     11.82197338	      2.00391431	      9.32082651	    -45.00000000	    -38.65532338	     45.00000000	    -45.00000000	     98.41452120	    268.03649736	    136.35182041	   -179.99999979	   1091.47693984	     47.98020542	      3.98860120	    -23.61252643
      3.04000000	     39.04330838	      7.71284295	     10.03103937	   -247.34945964	    849.45365125	      6.46417142	     12.28672714	     39.19286163	     37.07799291	     45.00000000	    -32.35638912	   2069.78895120	     67.33640750	     33.43620281	     51.85663367	   2181.20644031	    111.65891532	     11.78384040	      2.23199982	      9.41651684	    -45.00000000	    -38.49386571	     45.00000000	    -45.00000000	     98.29363266	    268.16729363	    136.45941167	   -179.99999979	   1091.50625503	     47.98186490	      4.23424022	    -23.10126304
      3.05000000	     39.13229755	      7.74427565	      9.98115999	   -247.24384793	    849.16549380	      6.38949476	     12.15502048	     39.25459341	     37.34387462	     45.00000000	    -32.33033349	   2069.64561614	     67.41156902	     33.13935691	     51.67617627	   2181.51192553	    111.67823519	     11.76816510	      2.09022466	      9.36228291	    -45.00000000	    -38.70344613	     45.00000000	    -45.00000000	     98.41054543	    267.96004838	    136.31848853	   -179.99999979	   1091.51452553	     47.90173637	      4.05292008	    -23.55035990
      3.06000000	     39.00602655	      7.84688246	     10.21905695	   -247.08523575	    848.88985042	      6.31706997	     12.39082866	     39.15973279	     36.78301339	     45.00000000	    -32.36958733	   2069.71693840	     67.41080409	     33.71079952	     51.80224630	   2181.60018876	    111.70210395	     11.76605591	      2.16582469	      9.41472396	    -45.00000000	    -38.29769568	     45.00000000	    -45.00000000	     98.22548719	    268.33102064	    136.50263541	   -179.99999979	   1091.52545858	     47.86414693	      4.16080841	    -23.12664679
      3.07000000	     39.15593323	      7.83448364	     10.07172941	   -246.87068994	    848.61447272	      6.24376316	     12.18669791	     39.25461844	     37.38872088	     45.00000000	    -32.29863058	   2069.55382656	     67.31974554	     33.08677957	     51.56873693	   2181.68993885	    111.80462552	     11.67397362	      2.12068628	      9.39850542	    -45.00000000	    -38.63779069	     45.00000000	    -45.00000000	     98.47266918	    268.03693927	    136.21246117	   -179.99999979	   1091.64830760	     47.77695877	      4.07620273	    -23.48848799
      3.08000000	     39.15560160	      7.89741481	     10.12653559	   -246.61402566	    848.35923492	      6.17459689	     12.33709943	     39.19956068	     37.04490192	     45.00000000	    -32.34714410	   2069.72353899	     67.41963922	     33.43535561	     51.74340891	   2181.58594263	    111.90818105	     11.76034488	      2.16299661	      9.35577647	    -45.00000000	    -38.53937201	     45.00000000	    -45.00000000	     98.14474313	    268.11376281	    136.49774172	   -179.99999979	   1091.66076853	     47.71904629	      4.12938663	    -23.27310645
      3.09000000	     39.21144274	      7.83087643	     10.05888065	   -246.31937785	    848.12651103	      6.10995349	     12.23696115	     39.27362142	     37.36778693	     45.00000000	    -32.23107840	   2069.62408318	     67.31195992	     33.21042487	     51.57563157	   2181.65617983	    112.04520102	     11.66864942	      2.15573919	      9.41047047	    -45.00000000	    -38.61466524	     45.00000000	    -45.00000000	     98.37672798	    268.02938537	    136.20243624	   -179.99999979	   1091.64534322	     47.64917290	      4.11789621	    -23.41667694
      3.10000000	     39.21967572	      7.97643774	     10.17813893	   -245.99041930	    847.91649715	      6.05037949	     12.34975478	     39.24119584	     37.15440508	     45.00000000	    -32.23040152	   2069.70653684	     67.38423586	     33.36441016	     51.66196923	   2181.59947293	    112.17711784	     11.75186721	      2.15807344	      9.34585995	    -45.00000000	    -38.59907846	     45.00000000	    -45.00000000	     98.08416239	    268.09059080	    136.51102586	   -179.99999979	   1091.68219153	     47.57429132	      4.12436376	    -23.30588125
      3.11000000	     39.27597438	      7.85147884	     10.08614238	   -245.62493272	    847.72423571	      5.99574375	     12.26202878	     39.30301616	     37.43239092	     45.00000000	    -32.07271979	   2069.61596481	     67.26301906	     33.23207918	     51.50311123	   2181.66148791	    112.32653090	     11.65355372	      2.16358539	      9.42332679	    -45.00000000	    -38.61121294	     45.00000000	    -45.00000000	     98.32835306	    268.04617481	    136.16104089	   -179.99999979	   1091.66191533	     47.50133814	      4.13963516	    -23.38095390
      3.12000000	     39.28574141	      8.03328455	     10.21919884	   -245.22423154	    847.54431120	      5.94682118	     12.37711711	     39.29786518	     37.21968607	     45.00000000	    -32.06580804	   2069.69257374	     67.35407675	     33.35528547	     51.59877684	   2181.63394167	    112.46533311	     11.76820558	      2.12537540	      9.33794974	    -45.00000000	    -38.62104370	     45.00000000	    -45.00000000	     98.01217805	    268.07918055	    136.53338007	   -179.99999979	   1091.73380161	     47.40877531	      4.12299887	    -23.31576992
      3.13000000	     39.32647236	      7.86552213	     10.05820479	   -244.78005399	    847.36621845	      5.90309194	     12.16912453	     39.30305484	     37.32831320	     45.00000000	    -31.78663361	   2069.79045663	     67.21769600	     33.21461659	     51.35247325	   2181.57430111	    112.61702432	     11.60909036	      2.18611705	      9.50977602	    -45.00000000	    -38.80471754	     45.00000000	    -45.00000000	     98.34463312	    267.99368949	    135.99082152	   -179.99999979	   1091.52533706	     47.36244569	      4.20386015	    -23.35463849
      3.14000000	     39.31383731	      7.96342832	     10.11762716	   -244.29077332	    847.18107778	      5.86433339	     12.10439965	     39.29842196	     37.27786107	     45.00000000	    -31.76618497	   2069.89517597	     67.31629801	     33.25711992	     51.42906086	   2181.58238212	    112.78133117	     11.78109796	      2.10963759	      9.48934658	    -45.00000000	    -38.76420278	     45.00000000	    -45.00000000	     97.96471617	    267.94062421	    136.32469531	   -179.99999979	   1091.57613264	     47.24391583	      4.18953480	    -23.31221677
      3.15000000	     39.34972931	      8.09167258	     10.15294003	   -243.73618305	    846.97305585	      5.82801732	     12.28021987	     39.39500606	     37.18759951	     45.00000000	    -31.62285460	   2069.75522947	     67.31687348	     33.38329515	     51.37049185	   2181.61164485	    112.92866577	     11.72600779	      2.09292827	      9.45326890	    -45.00000000	    -38.84674621	     45.00000000	    -45.00000000	     98.08238178	    268.07109502	    136.23352411	   -179.99999979	   1091.69133392	     47.11534760	      4.18425462	    -23.32378459
      3.16000000	     39.25675103	      8.52168347	     10.37859215	   -243.12078343	    846.73723515	      5.79314929	     12.10874856	     39.30838829	     36.60108295	     45.00000000	    -31.39940638	   2070.05311029	     67.42936898	     33.29973567	     51.25339126	   2181.67105637	    113.06869677	     11.76684684	      2.05176619	      9.55226854	    -45.00000000	    -38.90296050	     45.00000000	    -45.00000000	     97.90139308	    268.34273382	    136.36899212	   -179.99999979	   1091.73003778	     46.98602672	      4.16182841	    -23.27088399
